<svg width="46" height="30" viewBox="0 0 46 30" fill="none" xmlns="http://www.w3.org/2000/svg">
<path d="M12.6518 14.683C12.4556 14.4887 12.4541 14.1721 12.6484 13.9759L15.8149 10.7786C16.0092 10.5824 16.3258 10.5809 16.522 10.7752C16.7182 10.9696 16.7197 11.2861 16.5254 11.4823L13.7107 14.3243L16.5528 17.1391C16.749 17.3334 16.7506 17.65 16.5562 17.8462C16.3619 18.0424 16.0454 18.0439 15.8491 17.8496L12.6518 14.683ZM45.0024 14.6738L13.0061 14.8277L13.0012 13.8277L44.9976 13.6738L45.0024 14.6738Z" fill="#8A5137"/>
<path d="M28.844 14.5911C28.8063 6.81166 22.448 0.532788 14.639 0.570298C6.83003 0.607808 0.532992 6.94747 0.570721 14.7269C0.60845 22.5063 6.96669 28.7852 14.7757 28.7477C22.5847 28.7102 28.8817 22.3705 28.844 14.5911Z" fill="#8A5137" stroke="#8A5137"/>
<path d="M12.6518 14.683C12.4556 14.4887 12.4541 14.1721 12.6484 13.9759L15.8149 10.7787C16.0092 10.5825 16.3258 10.581 16.522 10.7753C16.7182 10.9696 16.7198 11.2862 16.5254 11.4824L13.7108 14.3244L16.5528 17.1392C16.749 17.3335 16.7506 17.6501 16.5563 17.8463C16.362 18.0425 16.0454 18.044 15.8492 17.8497L12.6518 14.683ZM29.3446 14.7492L13.0061 14.8278L13.0012 13.8278L29.3398 13.7492L29.3446 14.7492Z" fill="white"/>
</svg>
