<svg width="67" height="43" viewBox="0 0 67 43" fill="none" xmlns="http://www.w3.org/2000/svg">
<path d="M18.7202 21.3693C18.5239 21.1749 18.5224 20.8584 18.7167 20.6622L21.8833 17.4649C22.0776 17.2687 22.3942 17.2672 22.5904 17.4615C22.7866 17.6558 22.7881 17.9724 22.5938 18.1686L19.7791 21.0106L22.6212 23.8254C22.8174 24.0197 22.8189 24.3363 22.6246 24.5325C22.4303 24.7287 22.1137 24.7302 21.9175 24.5359L18.7202 21.3693ZM66.0024 21.2882L19.0744 21.514L19.0696 20.514L65.9976 20.2883L66.0024 21.2882Z" fill="#8A5137"/>
<path d="M42.5379 21.3991C42.4819 9.85972 33.0508 0.547476 21.4695 0.603107C9.88813 0.658737 0.547779 10.0612 0.603743 21.6006C0.659707 33.14 10.0908 42.4522 21.6722 42.3966C33.2535 42.3409 42.5939 32.9385 42.5379 21.3991Z" fill="#8A5137" stroke="#8A5137"/>
<path d="M18.7202 21.3694C18.524 21.175 18.5225 20.8585 18.7168 20.6623L21.8833 17.465C22.0776 17.2688 22.3942 17.2673 22.5904 17.4616C22.7866 17.6559 22.7882 17.9725 22.5938 18.1687L19.7791 21.0107L22.6212 23.8255C22.8174 24.0198 22.819 24.3364 22.6247 24.5326C22.4303 24.7288 22.1138 24.7303 21.9176 24.536L18.7202 21.3694ZM43.0377 21.3988L19.0745 21.5141L19.0696 20.5141L43.0329 20.3988L43.0377 21.3988Z" fill="white"/>
</svg>
