<svg width="40" height="40" viewBox="0 0 40 40" fill="none" xmlns="http://www.w3.org/2000/svg">
<path d="M35.8953 28.7511L40 35.8974L38.9738 36.2283C34.8738 38.6714 29.9115 39.9931 24.8127 40C18.232 40 11.9208 37.8929 7.26748 34.1422C2.61419 30.3914 0 25.3044 0 20.0001C0 14.6958 2.61419 9.60871 7.26748 5.85799C11.9208 2.10728 18.232 0.000151344 24.8127 0.000151344C29.8712 -0.0158999 34.8089 1.24519 38.9328 3.60642L39.959 4.00345L35.8543 10.9182L34.4587 10.1242C31.7589 8.30192 28.3335 7.32676 24.8127 7.37813C20.6759 7.37813 16.7086 8.7027 13.7835 11.0605C10.8583 13.4182 9.21498 16.6161 9.21498 19.9504C9.21498 23.2848 10.8583 26.4827 13.7835 28.8404C16.7086 31.1982 20.6759 32.5228 24.8127 32.5228C28.4047 32.4838 31.8754 31.4697 34.6639 29.6444L35.8953 28.7511Z" fill="#8A5137"/>
</svg>
